<svg version="1.1" id="Layer_1" xmlns="http://www.w3.org/2000/svg" xmlns:xlink="http://www.w3.org/1999/xlink" x="0px" y="0px"
	 width="100%" viewBox="0 0 256 256" enable-background="new 0 0 256 256" xml:space="preserve">

<path fill="#65B26C" opacity="1.000000" stroke="none" 
	d="
M165.101089,181.055725 
	C158.862656,183.636856 152.838623,187.360260 146.344513,188.579315 
	C128.719162,191.887863 111.227776,190.852814 94.941612,182.407593 
	C70.613838,169.792389 55.908993,150.020935 52.008511,122.699562 
	C47.966812,94.388992 57.494347,70.761757 78.609779,52.204075 
	C91.238297,41.105278 106.444031,35.268414 123.668793,33.800282 
	C155.856552,31.056791 185.774017,49.527378 199.450623,76.677345 
	C192.735153,81.740677 186.297089,86.381287 179.859024,91.021896 
	C165.805130,57.651642 123.273697,47.264473 95.973404,69.406975 
	C84.580933,78.647079 78.118515,90.278282 75.916153,104.726784 
	C73.296883,121.910431 78.676483,136.750778 89.908684,149.011017 
	C99.392540,159.362885 111.827522,165.622787 126.343018,165.888153 
	C131.683807,165.985779 137.047897,164.809021 142.844376,164.514908 
	C150.558640,170.229416 157.829865,175.642563 165.101089,181.055725 
z"/>
<path fill="#F0CB51" opacity="1.000000" stroke="none" 
	d="
M179.945007,91.405167 
	C186.297089,86.381287 192.735153,81.740677 199.505341,77.018120 
	C207.739166,90.942184 207.711151,106.144806 206.703339,121.965683 
	C183.299561,121.965683 160.031464,121.965683 136.485153,121.627441 
	C137.779449,120.097832 139.327591,118.872620 140.928497,117.720711 
	C150.001419,111.192383 159.086945,104.681595 168.168198,98.164841 
	C172.689072,98.164841 177.209961,98.164841 182.246521,98.164841 
	C181.359146,95.610916 180.695068,93.699677 179.945007,91.405167 
z"/>
<path fill="#EFCA52" opacity="1.000000" stroke="none" 
	d="
M165.467834,181.027405 
	C157.829865,175.642563 150.558640,170.229416 143.251083,164.491302 
	C155.156082,161.227859 164.698135,154.582962 172.720428,144.631775 
	C179.137466,149.521561 185.426544,154.313828 191.916473,159.259140 
	C184.859711,168.714081 176.377686,176.078506 165.467834,181.027405 
z"/>
<path fill="#65B26C" opacity="1.000000" stroke="none" 
	d="
M167.691162,98.107773 
	C159.086945,104.681595 150.001419,111.192383 140.928497,117.720711 
	C139.327591,118.872620 137.779449,120.097832 136.008163,121.564629 
	C132.376617,121.840057 128.943848,121.840057 125.261093,121.840057 
	C125.261093,113.947472 125.261093,106.379860 125.261093,98.050713 
	C139.206528,98.050713 153.210342,98.050713 167.691162,98.107773 
z"/>
</svg>